<svg width="233" height="29" viewBox="0 0 233 29" fill="none" xmlns="http://www.w3.org/2000/svg">
<path fill-rule="evenodd" clip-rule="evenodd" d="M233 19.1677L210.767 19.1677V17.3891L233 17.3891V19.1677Z" fill="#26283B"/>
<path fill-rule="evenodd" clip-rule="evenodd" d="M22.2328 20.9464L0 20.9464L0 19.1677L22.2328 19.1677V20.9464Z" fill="#26283B"/>
<path d="M60.6956 25.7042V28.0609H51.3134V25.7042H54.2481V16.5887C54.2481 15.3733 53.9517 14.4247 53.3588 13.7429C52.7659 13.0611 51.9507 12.7202 50.9132 12.7202C49.1049 12.7202 47.2077 13.3872 45.2216 14.7212C45.3105 15.1658 45.355 15.6105 45.355 16.0552V25.7042H48.5565V28.0609H39.1742V25.7042H42.109V16.5887C42.109 15.3733 41.8125 14.4247 41.2197 13.7429C40.6268 13.0611 39.8116 12.7202 38.774 12.7202C37.2622 12.7202 35.4688 13.3131 33.3937 14.4989V25.7042H36.5508V28.0609H26.7683V25.7042H30.1477V12.9426H26.7683V10.5859H33.3937V12.2756C35.6466 10.8527 37.7217 10.1412 39.6189 10.1412C40.775 10.1412 41.7829 10.3932 42.6426 10.8971C43.5022 11.3714 44.1544 12.0384 44.599 12.8981C45.9034 12.0088 47.1188 11.327 48.2452 10.8527C49.3717 10.3784 50.5426 10.1412 51.758 10.1412C53.4181 10.1412 54.7817 10.66 55.8489 11.6975C56.9457 12.7054 57.4941 14.1283 57.4941 15.9662V25.7042H60.6956Z" fill="#26283B"/>
<path d="M80.3988 25.7042V28.0609H74.7516L74.5738 26.5046C73.6252 27.216 72.6766 27.7348 71.728 28.0609C70.7794 28.387 69.7122 28.55 68.5264 28.55C66.7478 28.55 65.2953 28.0609 64.1688 27.0826C63.072 26.0747 62.5236 24.8297 62.5236 23.3475C62.5236 21.4503 63.1609 20.0719 64.4356 19.2122C65.7399 18.3229 67.4444 17.8782 69.5491 17.8782C71.061 17.8782 72.6766 18.0709 74.3959 18.4563V16.6332C74.3959 15.2992 74.0253 14.2914 73.2843 13.6095C72.5728 12.9277 71.5649 12.5868 70.2606 12.5868C69.4009 12.5868 68.4079 12.7351 67.2814 13.0315C66.1846 13.2983 65.1767 13.6837 64.2577 14.1876L63.2795 12.0532C64.2577 11.4307 65.3842 10.9564 66.6589 10.6303C67.9632 10.3043 69.1786 10.1412 70.3051 10.1412C72.5876 10.1412 74.3811 10.7045 75.6854 11.8309C76.9897 12.9277 77.6419 14.4247 77.6419 16.3219V25.7042H80.3988ZM65.6362 23.1697C65.6362 24.0886 65.9326 24.8445 66.5255 25.4374C67.148 26.0006 67.978 26.2823 69.0155 26.2823C70.7645 26.2823 72.558 25.6449 74.3959 24.3702V20.3683C72.8248 20.0126 71.2833 19.8347 69.7715 19.8347C68.5857 19.8347 67.5926 20.1015 66.7923 20.6351C66.0215 21.1391 65.6362 21.9839 65.6362 23.1697Z" fill="#26283B"/>
<path d="M103.968 25.7042V28.0609H94.5857V25.7042H97.476V16.5887C97.476 15.3733 97.1796 14.4247 96.5867 13.7429C95.9938 13.0611 95.1786 12.7202 94.1411 12.7202C93.2814 12.7202 92.4069 12.8833 91.5176 13.2094C90.6579 13.5058 89.7093 13.9653 88.6718 14.5878V25.7042H91.8289V28.0609H82.0464V25.7042H85.4258V12.9426H82.0464V10.5859H88.6718V12.32C90.984 10.8675 93.0887 10.1412 94.9859 10.1412C96.646 10.1412 98.0096 10.66 99.0768 11.6975C100.174 12.7054 100.722 14.1283 100.722 15.9662V25.7042H103.968Z" fill="#26283B"/>
<path d="M126.228 25.7042V28.0609H119.825L119.736 25.9265C117.601 27.6459 115.452 28.5055 113.288 28.5055C111.332 28.5055 109.864 27.9571 108.886 26.8603C107.937 25.7635 107.463 24.3554 107.463 22.6361V12.9426H104.528V10.5859H110.754V22.2803C110.754 23.4068 111.02 24.2961 111.554 24.9483C112.117 25.5708 112.947 25.8821 114.044 25.8821C116.06 25.8821 117.957 25.0669 119.736 23.4365V12.9426H116.579V10.5859H122.982V25.7042H126.228Z" fill="#26283B"/>
<path d="M128.618 25.7042H131.642V12.9426H128.529V10.5859H131.642V8.18473C131.642 5.66501 132.442 3.76781 134.043 2.49313C135.644 1.21845 137.734 0.581108 140.313 0.581108C142.447 0.581108 144.27 0.981299 145.782 1.78168C147.294 2.58206 148.05 3.61959 148.05 4.89428C148.05 5.5168 147.872 6.00592 147.516 6.36164C147.16 6.71737 146.657 6.89523 146.004 6.89523C145.352 6.89523 144.833 6.71737 144.448 6.36164C144.063 6.00592 143.87 5.54644 143.87 4.98321C143.87 4.7757 143.914 4.56819 144.003 4.36069C144.092 4.12354 144.211 3.94568 144.359 3.8271C144.003 3.41209 143.44 3.08601 142.669 2.84886C141.899 2.61171 141.113 2.49313 140.313 2.49313C138.623 2.49313 137.304 2.95261 136.355 3.87157C135.407 4.79052 134.932 6.24307 134.932 8.2292V10.5859H147.65V25.7042H150.673V28.0609H141.202V25.7042H144.404V12.9426H134.932V25.7042H138.801V28.0609H128.618V25.7042Z" fill="#26283B"/>
<path d="M160.654 28.0609C157.274 28.0609 155.585 26.3415 155.585 22.9029V12.9426H152.694V10.5859H155.585V4.62748L158.875 3.33798V10.5859H163.499V12.9426H158.875V22.725C158.875 23.8218 159.053 24.5926 159.409 25.0372C159.764 25.4819 160.372 25.7042 161.232 25.7042H163.9V28.0609H160.654Z" fill="#26283B"/>
<path d="M179.275 5.5168H168.915V9.7855H165.713V3.02672H182.699V5.29447L174.073 28.0609H170.871L179.275 5.5168Z" fill="#26283B"/>
<path d="M194.82 28.55C191.945 28.55 189.721 27.883 188.15 26.549C186.579 25.2151 185.793 23.4957 185.793 21.391C185.793 19.8792 186.223 18.5749 187.083 17.4781C187.943 16.3516 189.158 15.5216 190.729 14.988C189.277 14.3655 188.224 13.5799 187.572 12.6313C186.92 11.6531 186.594 10.4821 186.594 9.11851C186.594 7.16202 187.335 5.59091 188.817 4.40515C190.299 3.18976 192.285 2.58206 194.776 2.58206C197.295 2.58206 199.296 3.17494 200.778 4.36069C202.261 5.54644 203.002 7.13238 203.002 9.11851C203.002 12.0236 201.594 13.9949 198.777 15.0324C200.408 15.4771 201.638 16.2478 202.468 17.3447C203.328 18.4415 203.758 19.7754 203.758 21.3466C203.758 23.4809 202.957 25.2151 201.356 26.549C199.785 27.883 197.606 28.55 194.82 28.55ZM196.643 14.1431C197.295 13.906 197.947 13.3576 198.6 12.4979C199.281 11.6382 199.622 10.6007 199.622 9.38531C199.622 8.08098 199.192 7.04345 198.333 6.27271C197.503 5.47233 196.317 5.07214 194.776 5.07214C193.264 5.07214 192.078 5.45751 191.218 6.22825C190.388 6.99898 189.973 8.05134 189.973 9.38531C189.973 10.8082 190.536 11.8902 191.663 12.6313C192.789 13.3724 194.449 13.8763 196.643 14.1431ZM194.82 26.0155C196.45 26.0155 197.755 25.5856 198.733 24.726C199.711 23.8663 200.2 22.7102 200.2 21.2576C200.2 19.6569 199.607 18.4859 198.422 17.7449C197.236 16.9741 195.354 16.3812 192.775 15.9662C192.271 16.0848 191.752 16.3961 191.218 16.9C190.685 17.3743 190.24 17.9968 189.884 18.7676C189.529 19.5087 189.351 20.3239 189.351 21.2132C189.351 22.6657 189.84 23.8366 190.818 24.726C191.796 25.5856 193.13 26.0155 194.82 26.0155Z" fill="#26283B"/>
</svg>
